<?xml version="1.0" ?>
<!-- Uploaded to: SVG Repo, www.svgrepo.com, Generator: SVG Repo Mixer Tools -->
<svg width="800px" height="800px" viewBox="0 0 512 512" id="Layer_1" version="1.1" xml:space="preserve" xmlns="http://www.w3.org/2000/svg" xmlns:xlink="http://www.w3.org/1999/xlink">
<style type="text/css">
	.st0{fill:#E6E6E6;}
	.st1{fill:#69C9C9;}
	.st2{fill:#4D5152;}
</style>
<polygon class="st0" points="266,435.8 266,425.8 482,425.8 482,242.5 196.1,242.5 118.5,425.6 246,425.8 246,435.8 "/>
<polygon class="st1" points="30,145.3 90,145.3 90,155.3 482,155.3 482,222.5 182.9,222.5 96.8,425.6 30,425.6 "/>
<g>
<path class="st2" d="M262.9,135.3l-30.8-69.1H10v379.4l236,0.3v-20l-127.5-0.2l77.6-183.1l285.9,0v183.3H266v20h236V135.3H262.9z    M482,222.5H182.9l-86.1,203H30V86.2h189.1l21.9,49.1H90v20h392V222.5z"/>
<rect class="st2" height="20" width="20" x="50" y="135.3"/>
</g>
</svg>